<svg xmlns="http://www.w3.org/2000/svg" width="512.564" height="485.361" viewBox="0 0 512.564 485.361"><g fill="rgba(204,231,31,0.35)"><path d="M256.282,0C397.823,0,512.564,108.652,512.564,242.681S397.823,485.361,256.282,485.361,0,376.709,0,242.681,114.741,0,256.282,0Z" stroke="none"/><path d="M 256.2820434570313 1 C 238.9573059082031 1 221.6438293457031 2.652679443359375 204.822509765625 5.912139892578125 C 188.4296569824219 9.088623046875 172.3052978515625 13.82821655273438 156.8973083496094 19.99932861328125 C 141.7696533203125 26.05819702148438 127.1791687011719 33.55734252929688 113.5311889648438 42.28842163085938 C 100.0135803222656 50.93606567382813 87.30242919921875 60.8670654296875 75.7508544921875 71.80560302734375 C 64.20016479492188 82.7432861328125 53.71377563476563 94.77828979492188 44.58297729492188 107.5763549804688 C 35.36550903320313 120.4958801269531 27.44891357421875 134.3070068359375 21.052978515625 148.6261291503906 C 14.539306640625 163.2088623046875 9.536712646484375 178.4691467285156 6.184173583984375 193.9832153320313 C 2.744171142578125 209.9016723632813 0.999969482421875 226.285888671875 0.999969482421875 242.6805419921875 C 0.999969482421875 259.0751953125 2.744171142578125 275.4594116210938 6.184173583984375 291.3779296875 C 9.536712646484375 306.8919372558594 14.539306640625 322.1522827148438 21.052978515625 336.7349243164063 C 27.44891357421875 351.0540771484375 35.36550903320313 364.8652648925781 44.58297729492188 377.7847290039063 C 53.71377563476563 390.5828857421875 64.20016479492188 402.6178588867188 75.7508544921875 413.5554809570313 C 87.30242919921875 424.4940185546875 100.0135803222656 434.4250793457031 113.5311889648438 443.0726623535156 C 127.1791687011719 451.8037414550781 141.7696533203125 459.3028869628906 156.8973083496094 465.3617553710938 C 172.3052978515625 471.5328674316406 188.4296569824219 476.2724609375 204.822509765625 479.4489440917969 C 221.6438293457031 482.7084045410156 238.9573059082031 484.361083984375 256.2820434570313 484.361083984375 C 273.6067810058594 484.361083984375 290.9202270507813 482.7084045410156 307.7415771484375 479.4489440917969 C 324.1344604492188 476.2724609375 340.2587890625 471.5328674316406 355.6667785644531 465.3617553710938 C 370.79443359375 459.3028869628906 385.3849182128906 451.8037414550781 399.0328979492188 443.0726623535156 C 412.5505065917969 434.4250793457031 425.2616577148438 424.4940185546875 436.813232421875 413.5554809570313 C 448.3638916015625 402.6178588867188 458.8503112792969 390.5828857421875 467.9811096191406 377.7847290039063 C 477.1985778808594 364.8652648925781 485.1151733398438 351.0540771484375 491.5111083984375 336.7349243164063 C 498.0247802734375 322.1522827148438 503.0273742675781 306.8919372558594 506.3799133300781 291.3779296875 C 509.8199157714844 275.4594116210938 511.5641174316406 259.0751953125 511.5641174316406 242.6805419921875 C 511.5641174316406 226.285888671875 509.8199157714844 209.9016723632813 506.3799133300781 193.9832153320313 C 503.0273742675781 178.4691467285156 498.0247802734375 163.2088623046875 491.5111083984375 148.6261291503906 C 485.1151733398438 134.3070068359375 477.1985778808594 120.4958801269531 467.9811096191406 107.5763549804688 C 458.8503112792969 94.77828979492188 448.3638916015625 82.7432861328125 436.813232421875 71.80560302734375 C 425.2616577148438 60.8670654296875 412.5505065917969 50.93606567382813 399.0328979492188 42.28842163085938 C 385.3849182128906 33.55734252929688 370.79443359375 26.05819702148438 355.6667785644531 19.99932861328125 C 340.2587890625 13.82821655273438 324.1344604492188 9.088623046875 307.7415771484375 5.912139892578125 C 290.9202270507813 2.652679443359375 273.6067810058594 1 256.2820434570313 1 M 256.2820434570313 0 C 397.8226928710938 0 512.5640869140625 108.6517944335938 512.5640869140625 242.6805419921875 C 512.5640869140625 376.7093505859375 397.8226928710938 485.361083984375 256.2820434570313 485.361083984375 C 114.7413635253906 485.361083984375 0 376.7093505859375 0 242.6805419921875 C 0 108.6517944335938 114.7413635253906 0 256.2820434570313 0 Z" stroke="none" fill="rgba(112,112,112,0)"/></g></svg>