<svg xmlns="http://www.w3.org/2000/svg" width="324" height="112" viewBox="0 0 324 112"><defs><style>.a{fill:#fff;}.b{fill:#eb9c81;}.b,.d{stroke:rgba(112,112,112,0);}.c,.e{fill:rgba(255,255,255,0);}.c{stroke:#fbfbfb;stroke-width:5px;}.d{fill:#272424;font-size:42px;font-family:FuturaBT-Book, Futura Bk BT;opacity:0.14;}.f,.g,.i{stroke:none;}.g{fill:rgba(71,71,71,0.49);}.h{fill:none;}.i{fill:#fbfbfb;}</style></defs><g transform="translate(-50 -925)"><g class="a" transform="translate(50 954.792)"><path class="f" d="M18.161,0h270.9c10.03,0,18.161,6.379,18.161,14.247V40.961c0,7.869-8.131,14.247-18.161,14.247H18.161C8.131,55.208,0,48.829,0,40.961V14.247C0,6.379,8.131,0,18.161,0Z"/><path class="g" d="M 18.1611328125 2.999996185302734 C 16.03103637695313 2.999996185302734 13.97048950195313 3.325328826904297 12.0367431640625 3.966953277587891 C 10.20315551757813 4.575370788574219 8.566070556640625 5.438785552978516 7.17095947265625 6.533245086669922 C 4.48126220703125 8.643245697021484 3 11.38278579711914 3 14.24716186523438 L 3 40.96066284179688 C 3 43.82503509521484 4.48126220703125 46.56457901000977 7.17095947265625 48.67457962036133 C 8.566070556640625 49.76903533935547 10.20315551757813 50.63245391845703 12.0367431640625 51.24087142944336 C 13.97048950195313 51.88249588012695 16.03103637695313 52.20782852172852 18.1611328125 52.20782852172852 L 289.064697265625 52.20782852172852 C 291.1947937011719 52.20782852172852 293.2553405761719 51.88249588012695 295.1890869140625 51.24087142944336 C 297.0226745605469 50.63245391845703 298.6597595214844 49.76903533935547 300.0548706054688 48.67457962036133 C 302.7445678710938 46.56457901000977 304.225830078125 43.82503509521484 304.225830078125 40.96066284179688 L 304.225830078125 14.24716186523438 C 304.225830078125 11.38278579711914 302.7445678710938 8.643245697021484 300.0548706054688 6.533245086669922 C 298.6597595214844 5.438785552978516 297.0226745605469 4.575370788574219 295.1890869140625 3.966953277587891 C 293.2553405761719 3.325328826904297 291.1947937011719 2.999996185302734 289.064697265625 2.999996185302734 L 239.761962890625 2.999996185302734 L 18.1611328125 2.999996185302734 M 18.1611328125 -3.814697265625e-06 L 239.761962890625 -3.814697265625e-06 L 289.064697265625 -3.814697265625e-06 C 299.0948181152344 -3.814697265625e-06 307.225830078125 6.378662109375 307.225830078125 14.24716186523438 L 307.225830078125 40.96066284179688 C 307.225830078125 48.82916259765625 299.0948181152344 55.20782852172852 289.064697265625 55.20782852172852 L 18.1611328125 55.20782852172852 C 8.131011962890625 55.20782852172852 0 48.82916259765625 0 40.96066284179688 L 0 14.24716186523438 C 0 6.378662109375 8.131011962890625 -3.814697265625e-06 18.1611328125 -3.814697265625e-06 Z"/></g><g class="b" transform="translate(259 925)"><ellipse class="f" cx="57.5" cy="56" rx="57.5" ry="56"/><ellipse class="h" cx="57.5" cy="56" rx="57" ry="55.5"/></g><g class="c" transform="translate(286 948)"><circle class="f" cx="22.5" cy="22.5" r="22.5"/><circle class="h" cx="22.5" cy="22.5" r="20"/></g><text class="d" transform="translate(79 996)"><tspan x="0" y="0">Search </tspan></text><g class="e" transform="translate(318.986 989.705) rotate(-45)"><path class="f" d="M 8.5 30.5 L 3.5 30.5 L 3.5 3.5 L 8.5 3.5 L 8.5 30.5 Z"/><path class="i" d="M 0 0 L 12 0 L 12 34 L 0 34 L 0 0 Z"/></g></g></svg>