<svg xmlns="http://www.w3.org/2000/svg" width="307.226" height="55.208" viewBox="0 0 307.226 55.208"><defs><style>.a{fill:#fff;}.b,.c{stroke:none;}.c{fill:rgba(71,71,71,0.49);}</style></defs><g class="a"><path class="b" d="M18.161,0h270.9c10.03,0,18.161,6.379,18.161,14.247V40.961c0,7.869-8.131,14.247-18.161,14.247H18.161C8.131,55.208,0,48.829,0,40.961V14.247C0,6.379,8.131,0,18.161,0Z"/><path class="c" d="M 18.1611328125 2.999996185302734 C 16.03103637695313 2.999996185302734 13.97048950195313 3.325328826904297 12.0367431640625 3.966953277587891 C 10.20315551757813 4.575370788574219 8.566070556640625 5.438785552978516 7.17095947265625 6.533245086669922 C 4.48126220703125 8.643245697021484 3 11.38278579711914 3 14.24716186523438 L 3 40.96066284179688 C 3 43.82503509521484 4.48126220703125 46.56457901000977 7.17095947265625 48.67457962036133 C 8.566070556640625 49.76903533935547 10.20315551757813 50.63245391845703 12.0367431640625 51.24087142944336 C 13.97048950195313 51.88249588012695 16.03103637695313 52.20782852172852 18.1611328125 52.20782852172852 L 289.064697265625 52.20782852172852 C 291.1947937011719 52.20782852172852 293.2553405761719 51.88249588012695 295.1890869140625 51.24087142944336 C 297.0226745605469 50.63245391845703 298.6597595214844 49.76903533935547 300.0548706054688 48.67457962036133 C 302.7445678710938 46.56457901000977 304.225830078125 43.82503509521484 304.225830078125 40.96066284179688 L 304.225830078125 14.24716186523438 C 304.225830078125 11.38278579711914 302.7445678710938 8.643245697021484 300.0548706054688 6.533245086669922 C 298.6597595214844 5.438785552978516 297.0226745605469 4.575370788574219 295.1890869140625 3.966953277587891 C 293.2553405761719 3.325328826904297 291.1947937011719 2.999996185302734 289.064697265625 2.999996185302734 L 239.761962890625 2.999996185302734 L 18.1611328125 2.999996185302734 M 18.1611328125 -3.814697265625e-06 L 239.761962890625 -3.814697265625e-06 L 289.064697265625 -3.814697265625e-06 C 299.0948181152344 -3.814697265625e-06 307.225830078125 6.378662109375 307.225830078125 14.24716186523438 L 307.225830078125 40.96066284179688 C 307.225830078125 48.82916259765625 299.0948181152344 55.20782852172852 289.064697265625 55.20782852172852 L 18.1611328125 55.20782852172852 C 8.131011962890625 55.20782852172852 0 48.82916259765625 0 40.96066284179688 L 0 14.24716186523438 C 0 6.378662109375 8.131011962890625 -3.814697265625e-06 18.1611328125 -3.814697265625e-06 Z"/></g></svg>