<svg xmlns="http://www.w3.org/2000/svg" xmlns:xlink="http://www.w3.org/1999/xlink" width="1920" height="1080" viewBox="0 0 1920 1080"><defs><style>.a{clip-path:url(#b);}.b,.g,.k{fill:#fff;}.b{stroke:#96dbcd;}.c{fill:#e8edfd;opacity:0.6;}.c,.d{stroke:rgba(112,112,112,0);}.d{fill:#ced8fb;opacity:0.7;}.e{fill:rgba(79,115,240,0.8);stroke:rgba(181,73,73,0);opacity:0.23;}.f{fill:rgba(204,231,31,0.35);}.g{stroke:#707070;}.h,.j{stroke:none;}.i{fill:none;}.j{fill:rgba(112,112,112,0);}</style><clipPath id="b"><rect width="1920" height="1080"/></clipPath></defs><g id="a" class="a"><rect class="k" width="1920" height="1080"/><g class="b" transform="translate(0 154)"><rect class="h" width="1920" height="926"/><rect class="i" x="0.5" y="0.5" width="1919" height="925"/></g><g class="c" transform="translate(335 749)"><circle class="h" cx="385" cy="385" r="385"/><circle class="i" cx="385" cy="385" r="384.5"/></g><g class="d" transform="translate(769 515)"><circle class="h" cx="413.5" cy="413.5" r="413.5"/><circle class="i" cx="413.5" cy="413.5" r="413"/></g><g class="e" transform="translate(1202 11)"><ellipse class="h" cx="467.5" cy="439" rx="467.5" ry="439"/><ellipse class="i" cx="467.5" cy="439" rx="467" ry="438.5"/></g><g class="f" transform="translate(-311 -193)"><path class="h" d="M388.525,0C603.1,0,777.05,158.4,777.05,353.8s-173.949,353.8-388.525,353.8S0,549.193,0,353.8,173.949,0,388.525,0Z"/><path class="j" d="M 388.5252075195313 1 C 375.3030090332031 1 361.9687194824219 1.61309814453125 348.892822265625 2.8223876953125 C 336.0065002441406 4.01409912109375 323.0580139160156 5.8135986328125 310.4070129394531 8.17095947265625 C 285.5213928222656 12.80810546875 261.0435180664063 19.727294921875 237.6531372070313 28.73626708984375 C 214.6884155273438 37.581298828125 192.539306640625 48.52880859375 171.8209838867188 61.274658203125 C 151.301025390625 73.8985595703125 132.0051879882813 88.3958740234375 114.4697265625 104.3640747070313 C 96.935791015625 120.33056640625 81.017578125 137.8991088867188 67.1571044921875 156.5814819335938 C 53.16522216796875 175.4408569335938 41.14801025390625 195.6018981933594 31.439208984375 216.50439453125 C 21.55181884765625 237.7912902832031 13.9581298828125 260.0672912597656 8.86907958984375 282.7135925292969 C 6.2822265625 294.2255859375 4.3074951171875 306.0080871582031 2.99969482421875 317.7339782714844 C 1.67279052734375 329.6321716308594 1 341.7654724121094 1 353.7967834472656 C 1 365.8280944824219 1.67279052734375 377.9613952636719 2.99969482421875 389.8595886230469 C 4.3074951171875 401.5854797363281 6.2822265625 413.3679809570313 8.86907958984375 424.8799743652344 C 13.9581298828125 447.5262756347656 21.55181884765625 469.8022766113281 31.439208984375 491.0891723632813 C 41.14801025390625 511.99169921875 53.16522216796875 532.1527099609375 67.1571044921875 551.0120849609375 C 81.017578125 569.6944580078125 96.935791015625 587.2630004882813 114.4697265625 603.2294921875 C 132.0051879882813 619.1976928710938 151.301025390625 633.6950073242188 171.8209838867188 646.3189086914063 C 192.539306640625 659.0647583007813 214.6884155273438 670.0122680664063 237.6531372070313 678.8572998046875 C 261.0435180664063 687.8662719726563 285.5213928222656 694.7854614257813 310.4070129394531 699.422607421875 C 323.0580139160156 701.7799682617188 336.0065002441406 703.5794677734375 348.892822265625 704.7711791992188 C 361.9687194824219 705.98046875 375.3030090332031 706.5935668945313 388.5252075195313 706.5935668945313 C 401.7474060058594 706.5935668945313 415.0816955566406 705.98046875 428.1575927734375 704.7711791992188 C 441.0437927246094 703.5794677734375 453.9924011230469 701.7799682617188 466.6434020996094 699.422607421875 C 491.5289001464844 694.7854614257813 516.0068969726563 687.8662719726563 539.3973388671875 678.8572998046875 C 562.3619384765625 670.0122680664063 584.510986328125 659.0647583007813 605.2293090820313 646.3189086914063 C 625.7493896484375 633.6950073242188 645.0452270507813 619.1976928710938 662.5806884765625 603.2294921875 C 680.1146240234375 587.2630004882813 696.0328369140625 569.6944580078125 709.893310546875 551.0120849609375 C 723.8851318359375 532.1527099609375 735.9024047851563 511.99169921875 745.6112060546875 491.0891723632813 C 755.4985961914063 469.8022766113281 763.09228515625 447.5262756347656 768.1813354492188 424.8799743652344 C 770.7681884765625 413.3679809570313 772.742919921875 401.5854797363281 774.0505981445313 389.8595886230469 C 775.3776245117188 377.9613952636719 776.0504150390625 365.8280944824219 776.0504150390625 353.7967834472656 C 776.0504150390625 341.7654724121094 775.3776245117188 329.6321716308594 774.0505981445313 317.7339782714844 C 772.742919921875 306.0080871582031 770.7681884765625 294.2255859375 768.1813354492188 282.7135925292969 C 763.09228515625 260.0672912597656 755.4985961914063 237.7912902832031 745.6112060546875 216.50439453125 C 735.9024047851563 195.6018981933594 723.8851318359375 175.4408569335938 709.893310546875 156.5814819335938 C 696.0328369140625 137.8991088867188 680.1146240234375 120.33056640625 662.5806884765625 104.3640747070313 C 645.0452270507813 88.3958740234375 625.7493896484375 73.8985595703125 605.2293090820313 61.274658203125 C 584.510986328125 48.52880859375 562.3619384765625 37.581298828125 539.3973388671875 28.73626708984375 C 516.0068969726563 19.727294921875 491.5289001464844 12.80810546875 466.6434020996094 8.17095947265625 C 453.9924011230469 5.8135986328125 441.0437927246094 4.01409912109375 428.1575927734375 2.8223876953125 C 415.0816955566406 1.61309814453125 401.7474060058594 1 388.5252075195313 1 M 388.5252075195313 0 C 603.1016845703125 0 777.0504150390625 158.4002075195313 777.0504150390625 353.7967834472656 C 777.0504150390625 549.193359375 603.1016845703125 707.5935668945313 388.5252075195313 707.5935668945313 C 173.9486083984375 707.5935668945313 0 549.193359375 0 353.7967834472656 C 0 158.4002075195313 173.9486083984375 0 388.5252075195313 0 Z"/></g><g class="g"><rect class="h" width="1920" height="154"/><rect class="i" x="0.5" y="0.5" width="1919" height="153"/></g></g></svg>